<svg width="1920" height="3463" viewBox="0 0 1920 3463" fill="none" xmlns="http://www.w3.org/2000/svg">
<g opacity="0.5" filter="url(#filter0_f)">
<path d="M123.526 485.637C44.3362 417.502 98.7833 314.802 135.906 271.969C-317.737 391.435 -69.408 480.371 -83.5585 615.311C-97.709 750.251 170.604 727.554 214.476 671.586C258.347 615.619 222.513 570.806 123.526 485.637Z" fill="#41EAD4"/>
</g>
<g opacity="0.15" filter="url(#filter1_f)">
<path d="M126.634 2396.67C-22.8035 2268.09 79.9429 2074.29 149.996 1993.46C-706.068 2218.9 -237.449 2386.73 -264.152 2641.37C-290.855 2896.02 215.476 2853.18 298.264 2747.57C381.053 2641.96 313.432 2557.39 126.634 2396.67Z" fill="#41EAD4"/>
</g>
<g opacity="0.1" filter="url(#filter2_f)">
<path d="M331.821 2664.65C327.934 2504.11 152.76 2468.81 65.659 2471.23C649.648 2048.12 513.504 2430.08 687.765 2544.7C862.025 2659.33 573.656 2956.3 464.36 2953.96C355.065 2951.61 336.679 2865.34 331.821 2664.65Z" fill="#41ADEA"/>
</g>
<g opacity="0.5" filter="url(#filter3_f)">
<path d="M1791.83 1009.64C1871.02 941.502 1816.57 838.802 1779.45 795.969C2233.09 915.435 1984.76 1004.37 1998.91 1139.31C2013.06 1274.25 1744.75 1251.55 1700.88 1195.59C1657.01 1139.62 1692.84 1094.81 1791.83 1009.64Z" fill="#41EAD4"/>
</g>
<g opacity="0.5" filter="url(#filter4_f)">
<path d="M1682.25 872.493C1722.41 837.941 1694.8 785.862 1675.97 764.141C1906.02 824.723 1780.09 869.823 1787.26 938.252C1794.44 1006.68 1658.38 995.171 1636.13 966.789C1613.88 938.408 1632.05 915.683 1682.25 872.493Z" fill="#7741EA"/>
</g>
<g opacity="0.5" filter="url(#filter5_f)">
<path d="M167.249 679.493C207.407 644.941 179.797 592.862 160.972 571.141C391.017 631.723 265.088 676.823 272.263 745.252C279.439 813.68 143.376 802.171 121.128 773.789C98.881 745.408 117.052 722.683 167.249 679.493Z" fill="#7741EA"/>
</g>
<g opacity="0.1" filter="url(#filter6_f)">
<path fill-rule="evenodd" clip-rule="evenodd" d="M1585.14 503.361C1756.69 481.623 1928.04 567.336 2036.4 702.104C2145.26 837.5 2186.27 1021.47 2135.22 1187.54C2087.91 1341.46 1941.64 1431.66 1793.05 1493.72C1656.39 1550.79 1507.19 1564.81 1370.96 1506.74C1226.02 1444.96 1085.87 1337.2 1060.89 1181.64C1037.06 1033.21 1165.69 919.731 1257.62 800.787C1352.5 678.027 1431.22 522.866 1585.14 503.361Z" fill="#7741EA"/>
</g>
<g opacity="0.1" filter="url(#filter7_f)">
<path fill-rule="evenodd" clip-rule="evenodd" d="M2009.14 1668.36C2180.69 1646.62 2352.04 1732.34 2460.4 1867.1C2569.26 2002.5 2610.27 2186.47 2559.22 2352.54C2511.91 2506.46 2365.64 2596.66 2217.05 2658.72C2080.39 2715.79 1931.19 2729.81 1794.96 2671.74C1650.02 2609.96 1509.87 2502.2 1484.89 2346.64C1461.06 2198.21 1589.69 2084.73 1681.62 1965.79C1776.5 1843.03 1855.22 1687.87 2009.14 1668.36Z" fill="#7741EA"/>
</g>
<g opacity="0.07" filter="url(#filter8_f)">
<path fill-rule="evenodd" clip-rule="evenodd" d="M501.627 350.34C723.13 322.272 944.374 432.944 1084.28 606.955C1224.84 781.775 1277.8 1019.32 1211.88 1233.74C1150.79 1432.48 961.928 1548.95 770.075 1629.08C593.626 1702.77 400.988 1720.87 225.081 1645.89C37.944 1566.12 -143.021 1426.98 -175.267 1226.12C-206.035 1034.47 -39.9548 887.951 78.7462 734.373C201.256 575.867 302.888 375.524 501.627 350.34Z" fill="#41EAD4"/>
</g>
<g opacity="0.1" filter="url(#filter9_f)">
<path fill-rule="evenodd" clip-rule="evenodd" d="M1971.37 1869.34C1749.87 1841.27 1528.63 1951.94 1388.72 2125.95C1248.16 2300.78 1195.2 2538.32 1261.12 2752.74C1322.21 2951.48 1511.07 3067.95 1702.93 3148.08C1879.37 3221.77 2072.01 3239.87 2247.92 3164.89C2435.06 3085.12 2616.02 2945.98 2648.27 2745.12C2679.03 2553.47 2512.95 2406.95 2394.25 2253.37C2271.74 2094.87 2170.11 1894.52 1971.37 1869.34Z" fill="#41EAD4"/>
</g>
<g opacity="0.11" filter="url(#filter10_f)">
<path fill-rule="evenodd" clip-rule="evenodd" d="M334.228 349.271C501.253 328.116 668.083 411.53 773.579 542.684C879.566 674.448 919.5 853.487 869.799 1015.1C823.731 1164.89 681.319 1252.67 536.652 1313.07C403.601 1368.61 258.341 1382.25 125.698 1325.74C-15.4129 1265.62 -151.87 1160.75 -176.185 1009.36C-199.386 864.907 -74.1526 754.474 15.3541 638.72C107.733 519.253 184.369 368.253 334.228 349.271Z" fill="#BE41EA"/>
</g>
<defs>
<filter id="filter0_f" x="-449" y="0" width="1010.36" height="1039.23" filterUnits="userSpaceOnUse" color-interpolation-filters="sRGB">
<feFlood flood-opacity="0" result="BackgroundImageFix"/>
<feBlend mode="normal" in="SourceGraphic" in2="BackgroundImageFix" result="shape"/>
<feGaussianBlur stdDeviation="125" result="effect1_foregroundBlur"/>
</filter>
<filter id="filter1_f" x="-732" y="1702" width="1463.08" height="1517.58" filterUnits="userSpaceOnUse" color-interpolation-filters="sRGB">
<feFlood flood-opacity="0" result="BackgroundImageFix"/>
<feBlend mode="normal" in="SourceGraphic" in2="BackgroundImageFix" result="shape"/>
<feGaussianBlur stdDeviation="125" result="effect1_foregroundBlur"/>
</filter>
<filter id="filter2_f" x="-200" y="1956" width="1275.67" height="1323.32" filterUnits="userSpaceOnUse" color-interpolation-filters="sRGB">
<feFlood flood-opacity="0" result="BackgroundImageFix"/>
<feBlend mode="normal" in="SourceGraphic" in2="BackgroundImageFix" result="shape"/>
<feGaussianBlur stdDeviation="125" result="effect1_foregroundBlur"/>
</filter>
<filter id="filter3_f" x="1354" y="524" width="1010.36" height="1039.23" filterUnits="userSpaceOnUse" color-interpolation-filters="sRGB">
<feFlood flood-opacity="0" result="BackgroundImageFix"/>
<feBlend mode="normal" in="SourceGraphic" in2="BackgroundImageFix" result="shape"/>
<feGaussianBlur stdDeviation="125" result="effect1_foregroundBlur"/>
</filter>
<filter id="filter4_f" x="1337" y="503" width="758.804" height="773.448" filterUnits="userSpaceOnUse" color-interpolation-filters="sRGB">
<feFlood flood-opacity="0" result="BackgroundImageFix"/>
<feBlend mode="normal" in="SourceGraphic" in2="BackgroundImageFix" result="shape"/>
<feGaussianBlur stdDeviation="125" result="effect1_foregroundBlur"/>
</filter>
<filter id="filter5_f" x="-178" y="310" width="758.804" height="773.448" filterUnits="userSpaceOnUse" color-interpolation-filters="sRGB">
<feFlood flood-opacity="0" result="BackgroundImageFix"/>
<feBlend mode="normal" in="SourceGraphic" in2="BackgroundImageFix" result="shape"/>
<feGaussianBlur stdDeviation="125" result="effect1_foregroundBlur"/>
</filter>
<filter id="filter6_f" x="808" y="250" width="1599" height="1544" filterUnits="userSpaceOnUse" color-interpolation-filters="sRGB">
<feFlood flood-opacity="0" result="BackgroundImageFix"/>
<feBlend mode="normal" in="SourceGraphic" in2="BackgroundImageFix" result="shape"/>
<feGaussianBlur stdDeviation="125" result="effect1_foregroundBlur"/>
</filter>
<filter id="filter7_f" x="1232" y="1415" width="1599" height="1544" filterUnits="userSpaceOnUse" color-interpolation-filters="sRGB">
<feFlood flood-opacity="0" result="BackgroundImageFix"/>
<feBlend mode="normal" in="SourceGraphic" in2="BackgroundImageFix" result="shape"/>
<feGaussianBlur stdDeviation="125" result="effect1_foregroundBlur"/>
</filter>
<filter id="filter8_f" x="-429" y="96.0001" width="1919" height="1848" filterUnits="userSpaceOnUse" color-interpolation-filters="sRGB">
<feFlood flood-opacity="0" result="BackgroundImageFix"/>
<feBlend mode="normal" in="SourceGraphic" in2="BackgroundImageFix" result="shape"/>
<feGaussianBlur stdDeviation="125" result="effect1_foregroundBlur"/>
</filter>
<filter id="filter9_f" x="983" y="1615" width="1919" height="1848" filterUnits="userSpaceOnUse" color-interpolation-filters="sRGB">
<feFlood flood-opacity="0" result="BackgroundImageFix"/>
<feBlend mode="normal" in="SourceGraphic" in2="BackgroundImageFix" result="shape"/>
<feGaussianBlur stdDeviation="125" result="effect1_foregroundBlur"/>
</filter>
<filter id="filter10_f" x="-429" y="96.0002" width="1570" height="1516" filterUnits="userSpaceOnUse" color-interpolation-filters="sRGB">
<feFlood flood-opacity="0" result="BackgroundImageFix"/>
<feBlend mode="normal" in="SourceGraphic" in2="BackgroundImageFix" result="shape"/>
<feGaussianBlur stdDeviation="125" result="effect1_foregroundBlur"/>
</filter>
</defs>
</svg>
